<?xml version="1.0" standalone="no"?>
<!DOCTYPE svg PUBLIC "-//W3C//DTD SVG 20010904//EN"
 "http://www.w3.org/TR/2001/REC-SVG-20010904/DTD/svg10.dtd">
<svg version="1.0" xmlns="http://www.w3.org/2000/svg"
 width="512.000000pt" height="512.000000pt" viewBox="0 0 512.000000 512.000000"
 preserveAspectRatio="xMidYMid meet">

<g transform="translate(0.000000,512.000000) scale(0.100000,-0.100000)"
fill="#000000" stroke="none">
<path d="M2465 4764 c-11 -2 -47 -10 -80 -16 -110 -21 -240 -77 -347 -150 -67
-45 -203 -179 -225 -223 -9 -16 -26 -43 -38 -60 -30 -40 -65 -110 -65 -131 0
-9 -6 -30 -14 -47 -28 -61 -47 -163 -52 -267 l-4 -105 -163 -6 c-89 -3 -173
-10 -187 -14 -51 -16 -128 -74 -163 -123 -60 -82 -67 -107 -77 -300 -6 -97
-14 -211 -19 -252 -6 -41 -13 -131 -16 -200 -3 -69 -10 -156 -15 -195 -5 -38
-17 -200 -25 -360 -21 -375 -59 -918 -85 -1215 -12 -133 -8 -181 19 -239 43
-94 95 -151 175 -194 l41 -22 905 -5 905 -5 85 -59 c75 -52 104 -68 195 -106
106 -44 207 -60 378 -60 130 0 169 4 249 24 364 92 668 406 754 781 29 125 25
349 -8 476 -23 85 -92 256 -109 269 -3 3 -22 30 -42 60 -50 79 -182 213 -260
263 -26 17 -27 21 -27 105 -1 48 -5 134 -11 192 -11 115 -30 363 -53 675 -15
212 -27 285 -53 325 -45 69 -92 113 -153 143 -63 31 -68 32 -226 35 l-162 4
-7 91 c-19 247 -119 476 -279 638 -133 135 -258 206 -446 255 -56 14 -258 27
-295 18z m222 -313 c116 -22 211 -72 299 -158 79 -76 116 -132 160 -240 29
-71 37 -107 43 -186 3 -54 4 -100 2 -103 -6 -5 -1246 -5 -1252 0 -2 3 -1 47 2
98 26 389 369 660 746 589z m-1038 -1395 l-3 -404 27 -36 c16 -20 41 -43 57
-51 65 -33 148 -6 183 60 22 40 25 135 27 828 0 4 282 6 626 5 l625 -3 0 -380
c0 -340 1 -385 17 -430 14 -39 27 -55 58 -72 71 -41 138 -25 191 44 l28 36 3
404 3 403 133 0 c99 0 136 -3 145 -13 11 -15 21 -114 46 -477 8 -124 19 -263
25 -310 5 -47 10 -116 10 -154 l0 -68 -27 7 c-16 4 -109 9 -208 12 -159 4
-191 2 -268 -16 -257 -61 -473 -216 -628 -451 -39 -57 -72 -116 -76 -130 -3
-14 -11 -34 -17 -45 -5 -11 -11 -22 -11 -25 -1 -3 -6 -16 -12 -30 -34 -81 -45
-181 -40 -358 5 -196 18 -258 80 -387 l34 -70 -735 -3 c-534 -1 -739 1 -748 9
-17 14 -18 121 -4 279 9 99 25 307 35 450 2 36 7 82 10 102 4 21 10 131 15
245 9 215 35 620 45 708 9 67 35 432 42 575 4 83 10 120 21 133 13 15 34 17
154 17 l140 0 -3 -404z"/>
</g>
</svg>
